/* XPM */
static char * CAFARD_xpm[] = {
"70 70 497 2",
"  	c None",
". 	c #241B31",
"+ 	c #20192F",
"@ 	c #282133",
"# 	c #110C23",
"$ 	c #190E29",
"% 	c #10091A",
"& 	c #110A24",
"* 	c #120C27",
"= 	c #16122A",
"- 	c #141126",
"; 	c #0C0718",
"> 	c #150B20",
", 	c #0E081C",
"' 	c #170D25",
") 	c #11071E",
"! 	c #170C23",
"~ 	c #00001E",
"{ 	c #CE7454",
"] 	c #D37756",
"^ 	c #272337",
"/ 	c #0E0A27",
"( 	c #0A0725",
"_ 	c #0E0A26",
": 	c #0D0823",
"< 	c #292335",
"[ 	c #282337",
"} 	c #000026",
"| 	c #232035",
"1 	c #1D152E",
"2 	c #272135",
"3 	c #1F162E",
"4 	c #2A2036",
"5 	c #130A21",
"6 	c #B9674D",
"7 	c #D47756",
"8 	c #C77052",
"9 	c #582D2D",
"0 	c #401B31",
"a 	c #31162E",
"b 	c #1B0722",
"c 	c #653233",
"d 	c #9D453A",
"e 	c #9F4638",
"f 	c #9A4033",
"g 	c #9B4134",
"h 	c #A24D41",
"i 	c #452E35",
"j 	c #BE8465",
"k 	c #BF7156",
"l 	c #B9664D",
"m 	c #7C453D",
"n 	c #6B3333",
"o 	c #90302D",
"p 	c #7F282E",
"q 	c #550D29",
"r 	c #2B0A26",
"s 	c #00001F",
"t 	c #100A23",
"u 	c #1F152F",
"v 	c #CE7555",
"w 	c #B16348",
"x 	c #AF6049",
"y 	c #AF5845",
"z 	c #8C3534",
"A 	c #883233",
"B 	c #8D5454",
"C 	c #77696E",
"D 	c #491C2A",
"E 	c #94463A",
"F 	c #CD8469",
"G 	c #EACFB7",
"H 	c #ECD1B9",
"I 	c #E5BA96",
"J 	c #524243",
"K 	c #E2C1A7",
"L 	c #F0C9A4",
"M 	c #EDC39A",
"N 	c #A58773",
"O 	c #A28878",
"P 	c #E9C9AB",
"Q 	c #E8CEB4",
"R 	c #DBBA9F",
"S 	c #573D3C",
"T 	c #C08866",
"U 	c #662D35",
"V 	c #392A39",
"W 	c #302A3B",
"X 	c #2C2537",
"Y 	c #905243",
"Z 	c #D07555",
"` 	c #955340",
" .	c #B1634B",
"..	c #875450",
"+.	c #8A3433",
"@.	c #8B3233",
"#.	c #A3564B",
"$.	c #A35146",
"%.	c #904F50",
"&.	c #67545D",
"*.	c #3D1128",
"=.	c #893934",
"-.	c #C6775B",
";.	c #EEC9A5",
">.	c #BC8A77",
",.	c #D99A76",
"'.	c #B17B69",
").	c #BB7D65",
"!.	c #CA8767",
"~.	c #8C6252",
"{.	c #7F5B56",
"].	c #C0826B",
"^.	c #C58B74",
"/.	c #C88B71",
"(.	c #63514D",
"_.	c #E8BA95",
":.	c #B9684D",
"<.	c #B0604B",
"[.	c #3F1F2A",
"}.	c #AC6F54",
"|.	c #68453F",
"1.	c #332A38",
"2.	c #27202D",
"3.	c #A36357",
"4.	c #C97153",
"5.	c #975544",
"6.	c #BB694F",
"7.	c #955B5C",
"8.	c #843135",
"9.	c #893233",
"0.	c #9E493B",
"a.	c #9F4A3F",
"b.	c #864146",
"c.	c #543245",
"d.	c #44152C",
"e.	c #802D31",
"f.	c #AA5643",
"g.	c #C2886A",
"h.	c #9E392E",
"i.	c #BC6D53",
"j.	c #391C2B",
"k.	c #8D342E",
"l.	c #93332C",
"m.	c #AC4E3C",
"n.	c #753D37",
"o.	c #69292E",
"p.	c #A33C30",
"q.	c #A84233",
"r.	c #A94E3A",
"s.	c #57433F",
"t.	c #D49677",
"u.	c #B95B43",
"v.	c #B7563E",
"w.	c #412129",
"x.	c #B66A4C",
"y.	c #984836",
"z.	c #A1664D",
"A.	c #8D6351",
"B.	c #AE736E",
"C.	c #D17656",
"D.	c #844B4D",
"E.	c #762A35",
"F.	c #862F31",
"G.	c #802A2E",
"H.	c #7C2B32",
"I.	c #762A34",
"J.	c #4F2135",
"K.	c #431529",
"L.	c #77272E",
"M.	c #8E322F",
"N.	c #8C3231",
"O.	c #8D3330",
"P.	c #A74A39",
"Q.	c #35162B",
"R.	c #832C2B",
"S.	c #8B2E28",
"T.	c #9D3E32",
"U.	c #692F31",
"V.	c #62242C",
"W.	c #95322F",
"X.	c #953631",
"Y.	c #953D39",
"Z.	c #4B272B",
"`.	c #B9533C",
" +	c #A64232",
".+	c #A54538",
"++	c #2D1421",
"@+	c #A0473B",
"#+	c #B14733",
"$+	c #C5774C",
"%+	c #B57859",
"&+	c #694A40",
"*+	c #92564F",
"=+	c #9B5C52",
"-+	c #A35B48",
";+	c #C06C4E",
">+	c #894D44",
",+	c #6F313A",
"'+	c #793336",
")+	c #6B2B33",
"!+	c #5B1F32",
"~+	c #642232",
"{+	c #4E1D31",
"]+	c #421629",
"^+	c #742630",
"/+	c #7C292F",
"(+	c #78272E",
"_+	c #7E2A2C",
":+	c #9D443A",
"<+	c #32132A",
"[+	c #7B2929",
"}+	c #892E2C",
"|+	c #642A30",
"1+	c #61222B",
"2+	c #8C2F2D",
"3+	c #8A312F",
"4+	c #8B3736",
"5+	c #411B26",
"6+	c #A03E32",
"7+	c #943431",
"8+	c #943B39",
"9+	c #220B1E",
"0+	c #8E3C3A",
"a+	c #8A2F2E",
"b+	c #882E2A",
"c+	c #AD6445",
"d+	c #B6815E",
"e+	c #170018",
"f+	c #0D0D29",
"g+	c #362939",
"h+	c #B7664C",
"i+	c #D47856",
"j+	c #D27655",
"k+	c #CF7555",
"l+	c #914C41",
"m+	c #5C1F33",
"n+	c #4E1D2F",
"o+	c #2D0E2A",
"p+	c #51172D",
"q+	c #5E1B2B",
"r+	c #5F1C2D",
"s+	c #621C2D",
"t+	c #7B3039",
"u+	c #2A0E29",
"v+	c #69242C",
"w+	c #71252F",
"x+	c #712933",
"y+	c #4C2031",
"z+	c #521D2D",
"A+	c #732833",
"B+	c #6F2E38",
"C+	c #351429",
"D+	c #7E2C30",
"E+	c #70232F",
"F+	c #732935",
"G+	c #210822",
"H+	c #622232",
"I+	c #661F2F",
"J+	c #661B2B",
"K+	c #9B5F46",
"L+	c #C2855F",
"M+	c #390927",
"N+	c #767185",
"O+	c #45232C",
"P+	c #BA684D",
"Q+	c #CD7454",
"R+	c #C16B50",
"S+	c #D27756",
"T+	c #C76F52",
"U+	c #87433E",
"V+	c #5F2E35",
"W+	c #300F26",
"X+	c #47102D",
"Y+	c #4B132D",
"Z+	c #4D132D",
"`+	c #4F142E",
" @	c #561D35",
".@	c #210C26",
"+@	c #50162A",
"@@	c #511730",
"#@	c #541933",
"$@	c #37122E",
"%@	c #40162C",
"&@	c #581A2E",
"*@	c #581B32",
"=@	c #571E34",
"-@	c #260E29",
";@	c #592035",
">@	c #541831",
",@	c #541832",
"'@	c #220D27",
")@	c #3E0E29",
"!@	c #4E102C",
"~@	c #B37051",
"{@	c #DE8E58",
"]@	c #AE7657",
"^@	c #000018",
"/@	c #6F6A7E",
"(@	c #74423D",
"_@	c #C56E50",
":@	c #D27656",
"<@	c #BD6A4E",
"[@	c #3D0D2B",
"}@	c #3B102C",
"|@	c #3E122E",
"1@	c #3F132D",
"2@	c #220A23",
"3@	c #1A0C29",
"4@	c #3A0F28",
"5@	c #3A102A",
"6@	c #370E2A",
"7@	c #250C29",
"8@	c #300F2A",
"9@	c #401028",
"0@	c #42132A",
"a@	c #491930",
"b@	c #1A0927",
"c@	c #341027",
"d@	c #37102A",
"e@	c #4C172C",
"f@	c #521D31",
"g@	c #9F4C41",
"h@	c #C6744A",
"i@	c #D78650",
"j@	c #AC7254",
"k@	c #2C1B23",
"l@	c #C46E51",
"m@	c #BB694E",
"n@	c #C66F51",
"o@	c #D17655",
"p@	c #C86E50",
"q@	c #913831",
"r@	c #883737",
"s@	c #692330",
"t@	c #5C1C31",
"u@	c #55192F",
"v@	c #571A30",
"w@	c #4A152F",
"x@	c #44132E",
"y@	c #44122D",
"z@	c #3D122C",
"A@	c #3F122B",
"B@	c #46142C",
"C@	c #4B142E",
"D@	c #4F1932",
"E@	c #572034",
"F@	c #823032",
"G@	c #82312E",
"H@	c #C27548",
"I@	c #CD7D4B",
"J@	c #D4814D",
"K@	c #82523F",
"L@	c #634037",
"M@	c #583E3C",
"N@	c #834649",
"O@	c #854541",
"P@	c #703D37",
"Q@	c #28152C",
"R@	c #2B0F2B",
"S@	c #4E1C2C",
"T@	c #622930",
"U@	c #682E32",
"V@	c #642D32",
"W@	c #6D222E",
"X@	c #8A3030",
"Y@	c #973E34",
"Z@	c #9B4135",
"`@	c #9A453A",
" #	c #9A4437",
".#	c #954135",
"+#	c #994437",
"@#	c #994537",
"##	c #9A4637",
"$#	c #9F473B",
"%#	c #AA513B",
"&#	c #B3543C",
"*#	c #963C34",
"=#	c #8F5640",
"-#	c #8F5C42",
";#	c #8D614B",
">#	c #483138",
",#	c #330F2C",
"'#	c #42112A",
")#	c #44132F",
"!#	c #310F2B",
"~#	c #552A3C",
"{#	c #41192F",
"]#	c #1E0F27",
"^#	c #1C152F",
"/#	c #1D1834",
"(#	c #1C142D",
"_#	c #170E29",
":#	c #150E29",
"<#	c #1E112B",
"[#	c #4A182D",
"}#	c #6F282C",
"|#	c #7A3835",
"1#	c #7C3B32",
"2#	c #7F3F33",
"3#	c #7F3C33",
"4#	c #7C3B33",
"5#	c #7B3A32",
"6#	c #7C3B35",
"7#	c #813D36",
"8#	c #833E37",
"9#	c #853D35",
"0#	c #864437",
"a#	c #83453A",
"b#	c #6D3235",
"c#	c #26152D",
"d#	c #150D2A",
"e#	c #160D2F",
"f#	c #2C1130",
"g#	c #381029",
"h#	c #3F122C",
"i#	c #3A1635",
"j#	c #371F3A",
"k#	c #572432",
"l#	c #2E1428",
"m#	c #150E27",
"n#	c #110B22",
"o#	c #23102B",
"p#	c #1A1330",
"q#	c #1A1733",
"r#	c #0F0D28",
"s#	c #0F0B24",
"t#	c #121027",
"u#	c #110C25",
"v#	c #180B25",
"w#	c #160924",
"x#	c #221B39",
"y#	c #1C1735",
"z#	c #130E2C",
"A#	c #1C1634",
"B#	c #1E1837",
"C#	c #150F2F",
"D#	c #1E1835",
"E#	c #211C3C",
"F#	c #201933",
"G#	c #231F3A",
"H#	c #261D37",
"I#	c #341932",
"J#	c #2B112C",
"K#	c #26152F",
"L#	c #2C233F",
"M#	c #12051B",
"N#	c #3C182F",
"O#	c #1A102C",
"P#	c #4B1F34",
"Q#	c #28122B",
"R#	c #18071D",
"S#	c #4A1D2F",
"T#	c #130A24",
"U#	c #672D3C",
"V#	c #33172D",
"W#	c #180A25",
"X#	c #0F0A20",
"Y#	c #190E25",
"Z#	c #1A0C26",
"`#	c #170D24",
" $	c #150D24",
".$	c #42162D",
"+$	c #3D1631",
"@$	c #746170",
"#$	c #231A2C",
"$$	c #22182E",
"%$	c #1C0C29",
"&$	c #1D0E2A",
"*$	c #19162D",
"=$	c #130B23",
"-$	c #220A27",
";$	c #581E31",
">$	c #4F1A2F",
",$	c #221633",
"'$	c #170F26",
")$	c #4B4858",
"!$	c #100720",
"~$	c #291E33",
"{$	c #210B27",
"]$	c #492232",
"^$	c #6F4652",
"/$	c #503447",
"($	c #160C23",
"_$	c #474357",
":$	c #5C596C",
"<$	c #1C1428",
"[$	c #141026",
"}$	c #504B63",
"|$	c #180D2A",
"1$	c #312437",
"2$	c #4D4251",
"3$	c #211832",
"4$	c #120C24",
"5$	c #0F0A25",
"6$	c #261B2E",
"7$	c #150E21",
"8$	c #150F27",
"                                                                                                                                            ",
"                                                                                                                                            ",
"                                                                                                                                            ",
"                                                                                                                                            ",
"                                                                                                                                            ",
"                                                                                                                                            ",
"                                                                                                                                            ",
"                                                                                                                                            ",
"                                                                                                                                            ",
"                                                                                                                                            ",
"                                                                                                                                            ",
"                                                                                                                                            ",
"                                                                                                                                            ",
"                                                                                                                                            ",
"                                                                                                                                            ",
"                                                                                                                                            ",
"                                                                                                                                            ",
"                                                                                                                                            ",
"                                                    .                                                                                       ",
"                                      +                                                                                                     ",
"                                    @                                                                                                       ",
"                                            #                                                                                               ",
"                                $         %                                                                                                 ",
"                                & *                                                                                                         ",
"                                = -     ;                                                                                                   ",
"                              >       ,                                                                                                     ",
"                              '       )                                                                                                     ",
"                              !     ~ { ] ] ] ] ]             ^ / ( _ : < [ } | 1 2 3 4                                                     ",
"                              5     6 ] ] ] ] ] 7 8 9 0 a b c d e f g h i j k l m n o p q r s t                                             ",
"                              u   v ] ] ] ] ] w x y z A B C D E F G H I J K L M N O P Q R S T U V W X                                       ",
"                                Y 7 Z `    .] ..+.@.#.$.%.&.*.=.-.;.>.,.i '.).!.~.{.].^./.(._.:.<.[.}.|.1.2.                                ",
"                                3.7 4.5.  6.] 7.8.9.0.a.b.c.d.e.f.g.h.i.j.k.l.m.n.o.p.q.r.s.t.u.v.w.x.y.z.A.                                ",
"                                B.7 ] ] ] ] C.D.E.F.G.H.I.J.K.L.M.N.O.P.Q.R.S.T.U.V.W.X.Y.Z.`. +.+++@+#+$+%+&+                              ",
"                                  *+=+-+;+] C.>+,+'+)+!+~+{+]+^+/+(+_+:+<+[+}+X.|+1+2+3+4+5+6+7+8+9+0+a+b+c+d+e+                            ",
"                                      f+g+h+] i+j+] k+l+m+n+o+p+q+r+s+t+u+v+w+x+y+z+I.A+B+C+D+E+F+G+H+I+J+K+L+M+                            ",
"                                        N+O+P+] Q+R+S+T+U+V+W+X+Y+Z+`+ @.@+@@@#@$@%@&@*@=@-@;@>@,@'@)@!@~@{@]@^@                            ",
"                                          /@(@] j+_@S+] :@Z <@[@}@|@1@2@3@4@5@6@7@8@9@0@a@b@c@d@e@f@g@h@i@j@k@                              ",
"                                              l@S+] S+m@n@o@p@q@r@s@t@u@v@w@x@y@z@A@B@C@D@E@F@G@H@I@J@K@L@M@                                ",
"                                                N@O@P@Q@R@S@T@U@V@W@X@Y@Z@`@ #.#.#+#@###$#%#&#*#=#-#;#>#,#'#)#!#                            ",
"                                                ~#{#]#^#/#(#_#:#<#[#}#|#1#2#3#4#5#6#7#8#9#0#a#b#c#d#e#f#g#h#i#j#                            ",
"                                              k#l#m#n#      o#p#q#r#s#t#u#v#w#x#y#z#A#B#* C#D#E#F#G#H#I#J#K#L#                              ",
"                                              M#            N#          O#P#Q#                                                              ",
"                                              R#            S#T#          U#V#                                                              ",
"                                              W#X#          Y#Z#          `# $.$+$                                                          ",
"                                            @$#$            $$%$&$*$          =$-$;$>$,$                                                    ",
"                                            '$                )$!$                ~${$]$^$/$                                                ",
"                                          ($                _$:$  <$[$            }$    |$1$2$                                              ",
"                                                                  3$4$                  5$  6$                                              ",
"                                                                      7$                      8$                                            ",
"                                                                                                                                            ",
"                                                                                                                                            ",
"                                                                                                                                            ",
"                                                                                                                                            ",
"                                                                                                                                            ",
"                                                                                                                                            ",
"                                                                                                                                            ",
"                                                                                                                                            ",
"                                                                                                                                            ",
"                                                                                                                                            ",
"                                                                                                                                            ",
"                                                                                                                                            ",
"                                                                                                                                            ",
"                                                                                                                                            ",
"                                                                                                                                            ",
"                                                                                                                                            ",
"                                                                                                                                            ",
"                                                                                                                                            ",
"                                                                                                                                            ",
"                                                                                                                                            ",
"                                                                                                                                            "};
